<svg width="42" height="42" viewBox="0 0 42 42" fill="none" xmlns="http://www.w3.org/2000/svg">
<rect width="42" height="42" rx="21" fill="#24324F"/>
<path d="M27.1641 31.1173C25.9881 32.2783 24.7042 32.095 23.4682 31.5451C22.1602 30.9829 20.9603 30.9585 19.5803 31.5451C17.8523 32.3027 16.9404 32.0828 15.9084 31.1173C10.0525 24.9703 10.9165 15.6093 17.5643 15.2671C19.1843 15.3527 20.3123 16.1714 21.2602 16.2448C22.6762 15.9515 24.0322 15.1082 25.5441 15.2182C27.3561 15.3649 28.724 16.0981 29.624 17.418C25.8801 19.7032 26.7681 24.7259 30.2 26.1313C29.516 27.9644 28.628 29.7853 27.1521 31.1296L27.1641 31.1173ZM21.1402 15.1938C20.9603 12.4686 23.1322 10.22 25.6281 10C25.9761 13.1529 22.8202 15.4993 21.1402 15.1938Z" fill="white"/>
</svg>
