<svg width="42" height="42" viewBox="0 0 42 42" fill="none" xmlns="http://www.w3.org/2000/svg">
<rect width="42" height="42" rx="21" fill="#24324F"/>
<path d="M31 25.19C31 28.83 28.83 31 25.19 31H24C23.45 31 23 30.55 23 30V24.23C23 23.96 23.22 23.73 23.49 23.73L25.25 23.7C25.39 23.69 25.51 23.59 25.54 23.45L25.89 21.54C25.92 21.36 25.78 21.19 25.59 21.19L23.46 21.22C23.18 21.22 22.96 21 22.95 20.73L22.91 18.28C22.91 18.12 23.04 17.98 23.21 17.98L25.61 17.94C25.78 17.94 25.91 17.81 25.91 17.64L25.87 15.24C25.87 15.07 25.74 14.94 25.57 14.94L22.87 14.98C21.21 15.01 19.89 16.37 19.92 18.03L19.97 20.78C19.98 21.06 19.76 21.28 19.48 21.29L18.28 21.31C18.11 21.31 17.98 21.44 17.98 21.61L18.01 23.51C18.01 23.68 18.14 23.81 18.31 23.81L19.51 23.79C19.79 23.79 20.01 24.01 20.02 24.28L20.11 29.98C20.12 30.54 19.67 31 19.11 31H16.81C13.17 31 11 28.83 11 25.18V16.81C11 13.17 13.17 11 16.81 11H25.19C28.83 11 31 13.17 31 16.81V25.19Z" fill="white"/>
</svg>
