<svg width="42" height="42" viewBox="0 0 42 42" fill="none" xmlns="http://www.w3.org/2000/svg">
<rect width="42" height="42" rx="21" fill="#24324F"/>
<path d="M12.064 16.51C12.896 14.8532 14.1724 13.4605 15.7504 12.4875C17.3285 11.5144 19.1461 10.9994 21 11C23.695 11 25.959 11.99 27.69 13.605L24.823 16.473C23.786 15.482 22.468 14.977 21 14.977C18.395 14.977 16.19 16.737 15.405 19.1C15.205 19.7 15.091 20.34 15.091 21C15.091 21.66 15.205 22.3 15.405 22.9C16.191 25.264 18.395 27.023 21 27.023C22.345 27.023 23.49 26.668 24.386 26.068C24.9054 25.726 25.3501 25.2822 25.6932 24.7635C26.0363 24.2448 26.2706 23.6619 26.382 23.05H21V19.182H30.418C30.536 19.836 30.6 20.518 30.6 21.227C30.6 24.273 29.51 26.837 27.618 28.577C25.964 30.105 23.7 31 21 31C19.6866 31.0005 18.386 30.7422 17.1725 30.2399C15.9591 29.7375 14.8565 29.0009 13.9278 28.0722C12.9991 27.1436 12.2625 26.041 11.7601 24.8275C11.2578 23.614 10.9995 22.3134 11 21C11 19.386 11.386 17.86 12.064 16.51Z" fill="white"/>
</svg>
