<svg width="42" height="42" viewBox="0 0 42 42" fill="none" xmlns="http://www.w3.org/2000/svg">
<rect width="42" height="42" rx="21" fill="#24324F"/>
<path d="M25.19 11H16.81C13.17 11 11 13.17 11 16.81V25.18C11 28.83 13.17 31 16.81 31H25.18C28.82 31 30.99 28.83 30.99 25.19V16.81C31 13.17 28.83 11 25.19 11ZM21 24.88C18.86 24.88 17.12 23.14 17.12 21C17.12 18.86 18.86 17.12 21 17.12C23.14 17.12 24.88 18.86 24.88 21C24.88 23.14 23.14 24.88 21 24.88ZM26.92 15.88C26.87 16 26.8 16.11 26.71 16.21C26.61 16.3 26.5 16.37 26.38 16.42C26.26 16.47 26.13 16.5 26 16.5C25.73 16.5 25.48 16.4 25.29 16.21C25.2 16.11 25.13 16 25.08 15.88C25.03 15.76 25 15.63 25 15.5C25 15.37 25.03 15.24 25.08 15.12C25.13 14.99 25.2 14.89 25.29 14.79C25.52 14.56 25.87 14.45 26.19 14.52C26.26 14.53 26.32 14.55 26.38 14.58C26.44 14.6 26.5 14.63 26.56 14.67C26.61 14.7 26.66 14.75 26.71 14.79C26.8 14.89 26.87 14.99 26.92 15.12C26.97 15.24 27 15.37 27 15.5C27 15.63 26.97 15.76 26.92 15.88Z" fill="white"/>
</svg>
