<svg width="42" height="42" viewBox="0 0 42 42" fill="none" xmlns="http://www.w3.org/2000/svg">
<rect width="42" height="42" rx="21" fill="#24324F"/>
<path d="M28.0389 28.0433H25.0778V23.4022C25.0778 22.2956 25.0556 20.8711 23.5333 20.8711C21.99 20.8711 21.7544 22.0756 21.7544 23.3211V28.0433H18.7922V18.5H21.6367V19.8H21.6756C22.0733 19.0511 23.04 18.2589 24.4844 18.2589C27.4844 18.2589 28.04 20.2344 28.04 22.8044V28.0433H28.0389ZM15.4478 17.1944C15.2217 17.1947 14.9978 17.1504 14.789 17.064C14.5801 16.9776 14.3903 16.8508 14.2305 16.6909C14.0707 16.531 13.9441 16.3412 13.8578 16.1322C13.7715 15.9233 13.7273 15.6994 13.7278 15.4733C13.728 15.1331 13.8291 14.8007 14.0183 14.5179C14.2074 14.2352 14.4762 14.0149 14.7906 13.8849C15.105 13.755 15.4508 13.7211 15.7844 13.7877C16.118 13.8543 16.4244 14.0183 16.6648 14.259C16.9052 14.4997 17.0688 14.8063 17.1349 15.14C17.2011 15.4737 17.1668 15.8195 17.0364 16.1337C16.906 16.4479 16.6854 16.7164 16.4024 16.9052C16.1195 17.094 15.7869 17.1947 15.4467 17.1944H15.4478ZM16.9322 28.0433H13.9622V18.5H16.9333V28.0433H16.9322ZM29.5222 11H12.4767C11.6589 11 11 11.6444 11 12.4411V29.5589C11 30.3556 11.66 31 12.4756 31H29.5178C30.3333 31 31 30.3556 31 29.5589V12.4411C31 11.6444 30.3333 11 29.5178 11H29.5211H29.5222Z" fill="white"/>
</svg>
